ffmpeg version 3.4.8-0ubuntu0.2 Copyright (c) 2000-2020 the FFmpeg developers
  built with gcc 7 (Ubuntu 7.5.0-3ubuntu1~18.04)
  configuration: --prefix=/usr --extra-version=0ubuntu0.2 --toolchain=hardened --libdir=/usr/lib/x86_64-linux-gnu --incdir=/usr/include/x86_64-linux-gnu --enable-gpl --disable-stripping --enable-avresample --enable-avisynth --enable-gnutls --enable-ladspa --enable-libass --enable-libbluray --enable-libbs2b --enable-libcaca --enable-libcdio --enable-libflite --enable-libfontconfig --enable-libfreetype --enable-libfribidi --enable-libgme --enable-libgsm --enable-libmp3lame --enable-libmysofa --enable-libopenjpeg --enable-libopenmpt --enable-libopus --enable-libpulse --enable-librubberband --enable-librsvg --enable-libshine --enable-libsnappy --enable-libsoxr --enable-libspeex --enable-libssh --enable-libtheora --enable-libtwolame --enable-libvorbis --enable-libvpx --enable-libwavpack --enable-libwebp --enable-libx265 --enable-libxml2 --enable-libxvid --enable-libzmq --enable-libzvbi --enable-omx --enable-openal --enable-opengl --enable-sdl2 --enable-libdc1394 --enable-libdrm --enable-libiec61883 --enable-chromaprint --enable-frei0r --enable-libopencv --enable-libx264 --enable-shared
  libavutil      55. 78.100 / 55. 78.100
  libavcodec     57.107.100 / 57.107.100
  libavformat    57. 83.100 / 57. 83.100
  libavdevice    57. 10.100 / 57. 10.100
  libavfilter     6.107.100 /  6.107.100
  libavresample   3.  7.  0 /  3.  7.  0
  libswscale      4.  8.100 /  4.  8.100
  libswresample   2.  9.100 /  2.  9.100
  libpostproc    54.  7.100 / 54.  7.100
[rawvideo @ 0x55b4fcca9a20] Estimating duration from bitrate, this may be inaccurate
Input #0, rawvideo, from '../../SVC-Encoder-20220109T061506Z-001/SVC-Encoder/Dataset/RollerCoaster/ERP_8x8/tile_yuv/Tile_29_480x240.yuv':
  Duration: 00:00:10.00, start: 0.000000, bitrate: 41472 kb/s
    Stream #0:0: Video: rawvideo (I420 / 0x30323449), yuv420p, 480x240, 41472 kb/s, 30 tbr, 30 tbn, 30 tbc
Stream mapping:
  Stream #0:0 -> #0:0 (rawvideo (native) -> h264 (libx264))
Press [q] to stop, [?] for help
[libx264 @ 0x55b4fccb6c60] using cpu capabilities: MMX2 SSE2Fast LZCNT SSSE3 SSE4.2 AVX
[libx264 @ 0x55b4fccb6c60] profile High, level 2.1
Output #0, rawvideo, to 'RollerCoaster_Tile_29_480x240_x264_QP_24.h264':
  Metadata:
    encoder         : Lavf57.83.100
    Stream #0:0: Video: h264 (libx264), yuv420p, 480x240, q=-1--1, 30 fps, 30 tbn, 30 tbc
    Metadata:
      encoder         : Lavc57.107.100 libx264
    Side data:
      cpb: bitrate max/min/avg: 0/0/0 buffer size: 0 vbv_delay: -1
frame=  276 fps=0.0 q=30.0 PSNR=Y:nan U:nan V:nan *:nan size=      84kB time=00:00:07.76 bitrate=  89.0kbits/s speed=15.5x    frame=  300 fps=0.0 q=30.0 LPSNR=Y:inf U:inf V:inf *:inf size=     109kB time=00:00:09.93 bitrate=  89.8kbits/s speed=16.6x    
video:109kB audio:0kB subtitle:0kB other streams:0kB global headers:0kB muxing overhead: 0.000000%
[libx264 @ 0x55b4fccb6c60] frame I:2     Avg QP:23.24  size:  5015  PSNR Mean Y:49.92 U:52.08 V:53.73 Avg:50.68 Global:50.68
[libx264 @ 0x55b4fccb6c60] frame P:97    Avg QP:24.52  size:   814  PSNR Mean Y:46.49 U:50.34 V:51.99 Avg:47.55 Global:47.32
[libx264 @ 0x55b4fccb6c60] frame B:201   Avg QP:29.50  size:   112  PSNR Mean Y:46.85 U:50.84 V:52.42 Avg:47.93 Global:47.82
[libx264 @ 0x55b4fccb6c60] consecutive B-frames:  6.7%  8.7% 10.0% 74.7%
[libx264 @ 0x55b4fccb6c60] mb I  I16..4: 67.4% 27.3%  5.2%
[libx264 @ 0x55b4fccb6c60] mb P  I16..4:  4.3%  1.5%  0.1%  P16..4: 17.3%  6.3%  2.2%  0.0%  0.0%    skip:68.3%
[libx264 @ 0x55b4fccb6c60] mb B  I16..4:  0.0%  0.0%  0.0%  B16..8: 13.4%  0.8%  0.0%  direct: 0.0%  skip:85.7%  L0:41.8% L1:56.2% BI: 2.0%
[libx264 @ 0x55b4fccb6c60] 8x8 transform intra:25.6% inter:59.0%
[libx264 @ 0x55b4fccb6c60] coded y,uvDC,uvAC intra: 7.9% 36.1% 4.0% inter: 2.9% 2.5% 0.0%
[libx264 @ 0x55b4fccb6c60] i16 v,h,dc,p: 42% 36% 14%  8%
[libx264 @ 0x55b4fccb6c60] i8 v,h,dc,ddl,ddr,vr,hd,vl,hu:  3%  7% 78%  2%  1%  1%  2%  2%  4%
[libx264 @ 0x55b4fccb6c60] i4 v,h,dc,ddl,ddr,vr,hd,vl,hu: 11% 18% 31%  6%  5%  9%  6%  5%  9%
[libx264 @ 0x55b4fccb6c60] i8c dc,h,v,p: 63% 24% 11%  2%
[libx264 @ 0x55b4fccb6c60] Weighted P-Frames: Y:4.1% UV:0.0%
[libx264 @ 0x55b4fccb6c60] ref P L0: 68.2% 17.2% 11.0%  3.5%  0.1%
[libx264 @ 0x55b4fccb6c60] ref B L0: 85.5% 13.0%  1.5%
[libx264 @ 0x55b4fccb6c60] ref B L1: 92.8%  7.2%
[libx264 @ 0x55b4fccb6c60] PSNR Mean Y:46.753 U:50.690 V:52.288 Avg:47.822 Global:47.666 kb/s:89.22
